PathFileType	4	(X / Y / Z)	Demo_145623_11_September_2019	Demo_145623_11_September_2019.trc
DataRate	CameraRate	NumFrames	NumMarkers	Units	OrigDataRate	OrigDataStartFrame	OrigNumFrames
50	50	21	25	m	50	460	820
Frame#	Time		SpineBase		SpineMid		Neck		Head		ShoulderLeft		ElbowLeft		WristLeft		HandLeft		ShoulderRight		ElbowRight		WristRight		HandRight		HipLeft		KneeLeft		AnkleLeft		FootLeft		HipRight		KneeRight		AnkleRight		FootRight		SpineShoulder		HandTipLeft		LeftThumb		HandTipRight		ThumbRight		
X1	Y1	Z1	X2	Y2	Z2	X3	Y3	Z3	X4	Y4	Z4	X5	Y5	Z5	X6	Y6	Z6	X7	Y7	Z7	X8	Y8	Z8	X9	Y9	Z9	X10	Y10	Z10	X11	Y11	Z11	X12	Y12	Z12	X13	Y13	Z13	X14	Y14	Z14	X15	Y15	Z15	X16	Y16	Z16	X17	Y17	Z17	X18	Y18	Z18	X19	Y19	Z19	X20	Y20	Z20	X21	Y21	Z21	X22	Y22	Z22	X23	Y23	Z23	X24	Y24	Z24	X25	Y25	Z25	
411	30.160	0.025	0.786	1.694	0.025	1.065	1.659	0.025	1.334	1.611	0.052	1.477	1.587	-0.124	1.240	1.594	-0.189	0.996	1.595	-0.249	0.818	1.544	-0.268	0.744	1.526	0.200	1.211	1.612	0.373	1.113	1.592	0.571	1.158	1.546	0.652	1.167	1.529	-0.048	0.792	1.656	-0.092	0.493	1.696	-0.098	0.194	1.764	-0.095	0.173	1.670	0.098	0.788	1.668	0.114	0.504	1.759	0.075	0.215	1.915	0.078	0.159	1.810	0.025	1.268	1.625	-0.260	0.676	1.535	-0.291	0.758	1.551	0.741	1.180	1.508	0.739	1.159	1.519
412	30.177	0.010	0.787	1.683	0.013	1.066	1.651	0.016	1.334	1.606	0.042	1.477	1.581	-0.135	1.239	1.584	-0.201	0.996	1.582	-0.263	0.816	1.525	-0.280	0.742	1.503	0.196	1.213	1.610	0.379	1.157	1.581	0.557	1.269	1.526	0.602	1.309	1.510	-0.063	0.794	1.643	-0.102	0.494	1.692	-0.099	0.203	1.762	-0.095	0.179	1.663	0.082	0.789	1.658	0.106	0.504	1.746	0.074	0.217	1.912	0.077	0.158	1.810	0.015	1.269	1.620	-0.272	0.675	1.515	-0.304	0.752	1.530	0.689	1.362	1.475	0.652	1.332	1.508
413	30.194	0.010	0.787	1.683	0.013	1.066	1.651	0.016	1.334	1.606	0.042	1.477	1.581	-0.135	1.239	1.584	-0.201	0.996	1.582	-0.263	0.816	1.525	-0.280	0.742	1.503	0.196	1.213	1.610	0.379	1.157	1.581	0.557	1.269	1.526	0.602	1.309	1.510	-0.063	0.794	1.643	-0.102	0.494	1.692	-0.099	0.203	1.762	-0.095	0.179	1.663	0.082	0.789	1.658	0.106	0.504	1.746	0.074	0.217	1.912	0.077	0.158	1.810	0.015	1.269	1.620	-0.272	0.675	1.515	-0.304	0.752	1.530	0.689	1.362	1.475	0.652	1.332	1.508
414	30.210	0.010	0.787	1.683	0.013	1.066	1.651	0.016	1.334	1.606	0.042	1.477	1.581	-0.135	1.239	1.584	-0.201	0.996	1.582	-0.263	0.816	1.525	-0.280	0.742	1.503	0.196	1.213	1.610	0.379	1.157	1.581	0.557	1.269	1.526	0.602	1.309	1.510	-0.063	0.794	1.643	-0.102	0.494	1.692	-0.099	0.203	1.762	-0.095	0.179	1.663	0.082	0.789	1.658	0.106	0.504	1.746	0.074	0.217	1.912	0.077	0.158	1.810	0.015	1.269	1.620	-0.272	0.675	1.515	-0.304	0.752	1.530	0.689	1.362	1.475	0.652	1.332	1.508
415	30.227	0.010	0.787	1.683	0.013	1.066	1.651	0.016	1.334	1.606	0.042	1.477	1.581	-0.135	1.239	1.584	-0.201	0.996	1.582	-0.263	0.816	1.525	-0.280	0.742	1.503	0.196	1.213	1.610	0.379	1.157	1.581	0.557	1.269	1.526	0.602	1.309	1.510	-0.063	0.794	1.643	-0.102	0.494	1.692	-0.099	0.203	1.762	-0.095	0.179	1.663	0.082	0.789	1.658	0.106	0.504	1.746	0.074	0.217	1.912	0.077	0.158	1.810	0.015	1.269	1.620	-0.272	0.675	1.515	-0.304	0.752	1.530	0.689	1.362	1.475	0.652	1.332	1.508
416	30.244	-0.014	0.789	1.666	-0.012	1.066	1.636	-0.010	1.334	1.593	0.023	1.476	1.571	-0.156	1.236	1.567	-0.218	0.992	1.564	-0.279	0.806	1.498	-0.289	0.736	1.478	0.181	1.218	1.602	0.371	1.208	1.562	0.518	1.375	1.511	0.546	1.456	1.495	-0.086	0.794	1.625	-0.115	0.496	1.686	-0.099	0.209	1.761	-0.094	0.182	1.657	0.059	0.791	1.643	0.088	0.504	1.725	0.072	0.220	1.906	0.077	0.157	1.808	-0.010	1.268	1.606	-0.279	0.671	1.492	-0.314	0.744	1.511	0.608	1.539	1.475	0.583	1.473	1.498
417	30.260	-0.014	0.789	1.666	-0.012	1.066	1.636	-0.010	1.334	1.593	0.023	1.476	1.571	-0.156	1.236	1.567	-0.218	0.992	1.564	-0.279	0.806	1.498	-0.289	0.736	1.478	0.181	1.218	1.602	0.371	1.208	1.562	0.518	1.375	1.511	0.546	1.456	1.495	-0.086	0.794	1.625	-0.115	0.496	1.686	-0.099	0.209	1.761	-0.094	0.182	1.657	0.059	0.791	1.643	0.088	0.504	1.725	0.072	0.220	1.906	0.077	0.157	1.808	-0.010	1.268	1.606	-0.279	0.671	1.492	-0.314	0.744	1.511	0.608	1.539	1.475	0.583	1.473	1.498
418	30.277	-0.014	0.789	1.666	-0.012	1.066	1.636	-0.010	1.334	1.593	0.023	1.476	1.571	-0.156	1.236	1.567	-0.218	0.992	1.564	-0.279	0.806	1.498	-0.289	0.736	1.478	0.181	1.218	1.602	0.371	1.208	1.562	0.518	1.375	1.511	0.546	1.456	1.495	-0.086	0.794	1.625	-0.115	0.496	1.686	-0.099	0.209	1.761	-0.094	0.182	1.657	0.059	0.791	1.643	0.088	0.504	1.725	0.072	0.220	1.906	0.077	0.157	1.808	-0.010	1.268	1.606	-0.279	0.671	1.492	-0.314	0.744	1.511	0.608	1.539	1.475	0.583	1.473	1.498
419	30.294	-0.014	0.789	1.666	-0.012	1.066	1.636	-0.010	1.334	1.593	0.023	1.476	1.571	-0.156	1.236	1.567	-0.218	0.992	1.564	-0.279	0.806	1.498	-0.289	0.736	1.478	0.181	1.218	1.602	0.371	1.208	1.562	0.518	1.375	1.511	0.546	1.456	1.495	-0.086	0.794	1.625	-0.115	0.496	1.686	-0.099	0.209	1.761	-0.094	0.182	1.657	0.059	0.791	1.643	0.088	0.504	1.725	0.072	0.220	1.906	0.077	0.157	1.808	-0.010	1.268	1.606	-0.279	0.671	1.492	-0.314	0.744	1.511	0.608	1.539	1.475	0.583	1.473	1.498
420	30.311	-0.027	0.789	1.657	-0.025	1.066	1.628	-0.024	1.333	1.586	0.008	1.475	1.564	-0.170	1.234	1.557	-0.226	0.990	1.555	-0.285	0.802	1.487	-0.292	0.732	1.467	0.169	1.223	1.596	0.368	1.227	1.555	0.492	1.389	1.512	0.517	1.469	1.499	-0.098	0.795	1.615	-0.123	0.497	1.681	-0.099	0.200	1.764	-0.098	0.175	1.674	0.047	0.792	1.635	0.078	0.504	1.714	0.071	0.220	1.902	0.077	0.157	1.807	-0.025	1.268	1.598	-0.283	0.667	1.481	-0.320	0.740	1.499	0.559	1.561	1.488	0.549	1.518	1.504
421	30.327	-0.027	0.789	1.657	-0.025	1.066	1.628	-0.024	1.333	1.586	0.008	1.475	1.564	-0.170	1.234	1.557	-0.226	0.990	1.555	-0.285	0.802	1.487	-0.292	0.732	1.467	0.169	1.223	1.596	0.368	1.227	1.555	0.492	1.389	1.512	0.517	1.469	1.499	-0.098	0.795	1.615	-0.123	0.497	1.681	-0.099	0.200	1.764	-0.098	0.175	1.674	0.047	0.792	1.635	0.078	0.504	1.714	0.071	0.220	1.902	0.077	0.157	1.807	-0.025	1.268	1.598	-0.283	0.667	1.481	-0.320	0.740	1.499	0.559	1.561	1.488	0.549	1.518	1.504
422	30.344	-0.034	0.790	1.651	-0.035	1.066	1.622	-0.035	1.333	1.581	-0.004	1.475	1.558	-0.179	1.232	1.550	-0.232	0.989	1.549	-0.289	0.799	1.480	-0.293	0.729	1.460	0.159	1.226	1.592	0.365	1.237	1.552	0.483	1.379	1.511	0.521	1.436	1.499	-0.106	0.795	1.609	-0.130	0.498	1.678	-0.099	0.194	1.765	-0.102	0.170	1.683	0.039	0.793	1.630	0.072	0.504	1.707	0.070	0.220	1.899	0.078	0.157	1.804	-0.035	1.268	1.593	-0.285	0.664	1.473	-0.323	0.737	1.492	0.557	1.527	1.496	0.546	1.489	1.509
423	30.361	-0.034	0.790	1.651	-0.035	1.066	1.622	-0.035	1.333	1.581	-0.004	1.475	1.558	-0.179	1.232	1.550	-0.232	0.989	1.549	-0.289	0.799	1.480	-0.293	0.729	1.460	0.159	1.226	1.592	0.365	1.237	1.552	0.483	1.379	1.511	0.521	1.436	1.499	-0.106	0.795	1.609	-0.130	0.498	1.678	-0.099	0.194	1.765	-0.102	0.170	1.683	0.039	0.793	1.630	0.072	0.504	1.707	0.070	0.220	1.899	0.078	0.157	1.804	-0.035	1.268	1.593	-0.285	0.664	1.473	-0.323	0.737	1.492	0.557	1.527	1.496	0.546	1.489	1.509
424	30.377	-0.040	0.790	1.647	-0.041	1.066	1.618	-0.043	1.333	1.577	-0.014	1.475	1.553	-0.186	1.231	1.545	-0.236	0.987	1.544	-0.290	0.796	1.475	-0.291	0.726	1.457	0.149	1.228	1.588	0.343	1.215	1.557	0.481	1.324	1.512	0.526	1.376	1.499	-0.111	0.794	1.605	-0.135	0.498	1.674	-0.099	0.190	1.766	-0.104	0.167	1.690	0.033	0.793	1.626	0.068	0.504	1.703	0.069	0.219	1.895	0.078	0.156	1.801	-0.042	1.268	1.589	-0.286	0.662	1.467	-0.324	0.734	1.487	0.571	1.460	1.493	0.570	1.444	1.510
425	30.394	-0.040	0.790	1.647	-0.041	1.066	1.618	-0.043	1.333	1.577	-0.014	1.475	1.553	-0.186	1.231	1.545	-0.236	0.987	1.544	-0.290	0.796	1.475	-0.291	0.726	1.457	0.149	1.228	1.588	0.343	1.215	1.557	0.481	1.324	1.512	0.526	1.376	1.499	-0.111	0.794	1.605	-0.135	0.498	1.674	-0.099	0.190	1.766	-0.104	0.167	1.690	0.033	0.793	1.626	0.068	0.504	1.703	0.069	0.219	1.895	0.078	0.156	1.801	-0.042	1.268	1.589	-0.286	0.662	1.467	-0.324	0.734	1.487	0.571	1.460	1.493	0.570	1.444	1.510
426	30.411	-0.044	0.790	1.644	-0.046	1.066	1.616	-0.048	1.333	1.574	-0.023	1.474	1.549	-0.191	1.230	1.542	-0.239	0.986	1.541	-0.289	0.793	1.474	-0.288	0.723	1.457	0.141	1.229	1.586	0.319	1.181	1.567	0.497	1.289	1.512	0.552	1.319	1.495	-0.115	0.794	1.601	-0.140	0.498	1.671	-0.100	0.188	1.766	-0.105	0.166	1.695	0.029	0.793	1.624	0.065	0.504	1.699	0.068	0.219	1.891	0.078	0.156	1.798	-0.048	1.267	1.587	-0.284	0.659	1.463	-0.325	0.732	1.484	0.592	1.380	1.491	0.589	1.371	1.507
427	30.427	-0.044	0.790	1.644	-0.046	1.066	1.616	-0.048	1.333	1.574	-0.023	1.474	1.549	-0.191	1.230	1.542	-0.239	0.986	1.541	-0.289	0.793	1.474	-0.288	0.723	1.457	0.141	1.229	1.586	0.319	1.181	1.567	0.497	1.289	1.512	0.552	1.319	1.495	-0.115	0.794	1.601	-0.140	0.498	1.671	-0.100	0.188	1.766	-0.105	0.166	1.695	0.029	0.793	1.624	0.065	0.504	1.699	0.068	0.219	1.891	0.078	0.156	1.798	-0.048	1.267	1.587	-0.284	0.659	1.463	-0.325	0.732	1.484	0.592	1.380	1.491	0.589	1.371	1.507
428	30.444	-0.047	0.789	1.642	-0.050	1.066	1.613	-0.053	1.332	1.573	-0.030	1.474	1.546	-0.195	1.229	1.539	-0.241	0.984	1.539	-0.286	0.788	1.475	-0.284	0.718	1.460	0.132	1.228	1.584	0.284	1.131	1.581	0.504	1.207	1.517	0.568	1.228	1.500	-0.118	0.794	1.599	-0.142	0.498	1.670	-0.103	0.202	1.761	-0.103	0.175	1.675	0.026	0.793	1.621	0.063	0.504	1.696	0.068	0.218	1.888	0.079	0.156	1.794	-0.052	1.267	1.585	-0.282	0.655	1.463	-0.323	0.727	1.482	0.626	1.243	1.495	0.603	1.249	1.505
429	30.461	-0.047	0.789	1.642	-0.050	1.066	1.613	-0.053	1.332	1.573	-0.030	1.474	1.546	-0.195	1.229	1.539	-0.241	0.984	1.539	-0.286	0.788	1.475	-0.284	0.718	1.460	0.132	1.228	1.584	0.284	1.131	1.581	0.504	1.207	1.517	0.568	1.228	1.500	-0.118	0.794	1.599	-0.142	0.498	1.670	-0.103	0.202	1.761	-0.103	0.175	1.675	0.026	0.793	1.621	0.063	0.504	1.696	0.068	0.218	1.888	0.079	0.156	1.794	-0.052	1.267	1.585	-0.282	0.655	1.463	-0.323	0.727	1.482	0.626	1.243	1.495	0.603	1.249	1.505
430	30.478	-0.049	0.789	1.640	-0.053	1.065	1.612	-0.057	1.332	1.571	-0.036	1.474	1.544	-0.199	1.228	1.538	-0.243	0.983	1.537	-0.282	0.785	1.478	-0.280	0.714	1.464	0.123	1.228	1.583	0.259	1.093	1.594	0.473	1.092	1.548	0.552	1.097	1.524	-0.120	0.793	1.597	-0.144	0.498	1.668	-0.106	0.211	1.758	-0.101	0.182	1.661	0.023	0.792	1.619	0.061	0.503	1.694	0.067	0.217	1.885	0.079	0.155	1.791	-0.056	1.267	1.583	-0.279	0.651	1.465	-0.322	0.725	1.481	0.616	1.093	1.511	0.575	1.108	1.526
431	30.494	-0.049	0.789	1.640	-0.053	1.065	1.612	-0.057	1.332	1.571	-0.036	1.474	1.544	-0.199	1.228	1.538	-0.243	0.983	1.537	-0.282	0.785	1.478	-0.280	0.714	1.464	0.123	1.228	1.583	0.259	1.093	1.594	0.473	1.092	1.548	0.552	1.097	1.524	-0.120	0.793	1.597	-0.144	0.498	1.668	-0.106	0.211	1.758	-0.101	0.182	1.661	0.023	0.792	1.619	0.061	0.503	1.694	0.067	0.217	1.885	0.079	0.155	1.791	-0.056	1.267	1.583	-0.279	0.651	1.465	-0.322	0.725	1.481	0.616	1.093	1.511	0.575	1.108	1.526
